<svg version="1" xmlns="http://www.w3.org/2000/svg" width="377.333" height="377.333" viewBox="0 0 283.000000 283.000000"><path d="M0 141.5V283h283V152c0-86.6-.3-131-1-131.1-6.9-.9-8.1-5.5-2.5-9.1 3.2-2.1 3.5-2.7 3.5-7.1V0H0v141.5zM254.7 37.7c-.4 7.1-.7 20.8-.7 30.5 0 17.1-.1 17.8-2 17.8s-2-.7-2.2-24.8c-.1-13.6-.2-25.9-.3-27.3v-2.6l-16-.6c-8.8-.3-58-.6-109.2-.7H31v221h219v-26.5c0-25.8.1-26.5 2-26.5 2 0 2 .7 2 28.5V255H27V25.1l114.2-.1h114.1l-.6 12.7zm.3 103.8V177h-5v-71h5v35.5zM165.1 165c.3 0 4.4-11.9 9-26.5 8.4-26.4 8.4-26.5 11.2-26.5 1.6 0 2.6.3 2.4.7-.3.5-5.3 15.6-11.2 33.8-5.8 18.1-10.8 33.1-10.9 33.3-.2.1-5.6-12.8-12.2-28.8-6.5-15.9-12.1-29-12.4-29-.3 0-5.1 11.4-10.8 25.3-5.7 13.8-11.1 26.9-12 29.1l-1.7 3.8-10.8-33.5C99.8 128.3 95 113 95 112.6c0-.3 1.1-.6 2.3-.6 2.2 0 3 1.8 10.6 25.2 4.5 13.9 8.4 25.9 8.7 26.7.3.8.8 1.1 1.3.5.4-.5 5.9-13.4 12.1-28.7l11.3-27.8 11.6 28.6c6.4 15.6 11.9 28.5 12.2 28.5zm61.7-25.3c11.4 7 12.5 25.6 2 33.6-10.5 8.1-26.1 4.9-31.9-6.5-4-7.9-2.3-19.5 3.8-25 7-6.3 17.9-7.2 26.1-2.1z"/><path d="M207.2 143c-5.8 3.5-9.1 11.4-7.7 18 1 4.6 7 10.8 11.6 12 11.3 3.1 23.1-8.4 20-19.5-2.9-10.6-14.9-15.9-23.9-10.5z"/></svg>